<svg fill="none" viewBox="0 0 28 28" xmlns="http://www.w3.org/2000/svg"><path clip-rule="evenodd" d="M17.747 15.415c.238-.54.372-1.143.372-1.413 0-2.348-1.824-4.25-4.073-4.25-2.25 0-4.073 1.902-4.073 4.25 0 2.347 2.037 3.887 4.073 3.887 1.303 0 2.462-.637 3.206-1.63a4.29 4.29 0 0 0 .495-.844Zm-3.701.349c.51 0 .975-.196 1.332-.518.432-.39.622-.965.622-1.244 0-1.174-.828-2.126-1.954-2.126-1.125 0-2.046.95-2.046 2.124 0 .81.92 1.764 2.046 1.764Z" fill="#bac63e" fill-rule="evenodd" class="fill-000000"></path><path clip-rule="evenodd" d="M1.092 14.272a.448.448 0 0 1 0-.545c.01-.012.019-.025.028-.039C4.78 8.343 9.32 5.5 14.014 5.5c4.689 0 9.224 2.836 12.882 8.17.069.101.104.205.104.33 0 .13-.04.24-.114.346C23.23 19.67 18.698 22.5 14.014 22.5c-4.705 0-9.257-2.857-12.922-8.228Zm2.847-.92a1.04 1.04 0 0 0 0 1.294c3.135 3.898 6.665 5.729 10.075 5.729 3.41 0 6.94-1.83 10.075-5.729a1.04 1.04 0 0 0 0-1.294c-3.135-3.897-6.665-5.727-10.075-5.727-3.41 0-6.94 1.83-10.075 5.727Z" fill="#bac63e" fill-rule="evenodd" class="fill-000000"></path></svg>